<?xml version="1.0" encoding="utf-8"?>
<!-- Generator: Adobe Illustrator 13.0.0, SVG Export Plug-In . SVG Version: 6.00 Build 14948)  -->
<!DOCTYPE svg PUBLIC "-//W3C//DTD SVG 1.1//EN" "http://www.w3.org/Graphics/SVG/1.1/DTD/svg11.dtd">
<svg version="1.1" id="Calque_1" xmlns="http://www.w3.org/2000/svg" xmlns:xlink="http://www.w3.org/1999/xlink" x="0px" y="0px"
	 width="316px" height="316px" viewBox="0.23 0.23 316 316" enable-background="new 0.23 0.23 316 316" xml:space="preserve">
<g transform="translate(-0.03125,1.1875) scale(1,-1) scale(0.0017361) ">
	<path fill="#005E9C" d="M290.862,162.343v-3.485l-0.112-3.484l-0.226-3.485l-0.339-3.371l-0.335-3.372l-0.449-3.486l-0.564-3.372
		l-0.672-3.26l-0.677-3.372l-0.785-3.26l-0.899-3.373l-0.899-3.148l-1.014-3.259l-1.122-3.26l-1.124-3.147l-1.236-3.148l-1.35-3.035
		l-1.462-3.147l-1.461-3.036l-1.573-2.921l-1.572-3.035l-1.801-2.923l-1.685-2.809l-1.91-2.923l-1.911-2.809l-2.025-2.699
		l-2.021-2.81L259.5,74.33l-2.248-2.697l-2.248-2.585l-2.358-2.473l-2.474-2.585c-5.172-5.058-10.681-9.781-16.411-14.05
		L211.953,86.47c22.818,18.209,39.003,44.399,39.003,75.873c0,54.629-44.288,99.03-99.028,99.03
		c-12.813,0-25.065-2.473-36.307-6.859L95.5,289.362c17.536,7.755,36.645,11.913,56.428,11.913
		C228.59,301.275,290.862,238.892,290.862,162.343z"/>
	<path fill="#009490" d="M255.566-89.22l-0.112-2.474v-2.361l-0.111-2.247l-0.112-2.361l-0.114-2.361l-0.224-2.247l-0.227-2.361
		l-0.112-2.248l-0.336-2.249l-0.224-2.248l-0.227-2.136l-0.338-2.248l-0.336-2.136l-0.336-2.135l-0.451-2.136l-0.338-2.136
		l-0.786-3.822l-2.812,2.585c-8.654,7.869-16.972,16.862-24.839,27.09c-41.143,52.83-62.048,123.534-49.796,168.158l0.336,1.35
		l1.35,0.225c2.697,0.562,5.059,1.123,7.307,1.798c2.697,0.899,5.396,1.911,7.98,3.148l1.236,0.561l1.011-0.899
		C230.051,46.002,256.353-23.014,255.566-89.22z"/>
	<path fill="#009490" d="M114.048-139.466L111.8-142.5l-1.461,3.596c-4.271,10.678-7.756,22.594-10.34,35.183
		c-13.49,65.533-1.013,138.258,29.674,172.768l1.013,1.012l1.237-0.337c2.584-0.675,5.057-1.237,7.418-1.574
		c2.811-0.45,5.622-0.675,8.431-0.675l1.349-0.113l0.562-1.125c20.569-42.376,13.6-116.002-16.412-175.015
		C127.424-120.02,121.017-130.473,114.048-139.466z"/>
	<path fill="#009490" d="M14.906-72.134l-1.911-1.462l-1.911-1.349l-1.911-1.349l-1.911-1.349l-1.911-1.236l-1.911-1.348
		l-2.023-1.237l-1.911-1.237l-1.911-1.124l-1.911-1.124l-1.912-1.125l-1.911-1.125l-1.911-1.011l-1.911-1.124l-2.023-0.9
		l-1.91-1.011l-3.373-1.686l0.226,3.821c0.899,11.579,3.034,23.719,6.294,36.195C4.228,11.832,47.616,71.521,90.442,88.942
		l1.237,0.451l1.012-0.899c2.023-1.799,3.934-3.261,5.957-4.609c2.25-1.685,4.721-3.147,7.194-4.496l1.237-0.562v-1.348
		C106.742,30.379,67.962-32.456,14.906-72.134z"/>
	<path fill="#009490" d="M-91.316,42.406l4.159,4.721l4.271,4.609l4.383,4.497l4.497,4.382l4.609,4.272l4.721,4.16l4.721,4.046
		l4.833,3.934l4.946,3.71l4.945,3.709l5.058,3.485l5.059,3.373l5.059,3.259l5.17,3.147l5.171,2.922l5.059,2.811l5.17,2.698
		l5.171,2.473l5.17,2.249l5.17,2.135l5.17,2.023l5.058,1.799l5.059,1.574l5.058,1.461l4.946,1.237l4.833,1.011l4.833,0.788
		l4.721,0.674l4.721,0.449l4.609,0.226h4.496l4.384-0.226l1.349-0.113l0.449-1.237c1.013-2.471,2.136-4.608,3.261-6.743
		c1.348-2.473,2.922-4.946,4.608-7.194l0.787-1.125l-0.674-1.124c-21.02-42.04-83.63-81.381-148.713-93.522
		c-12.477-2.248-24.617-3.483-36.083-3.483h-3.821l1.911,3.259C-107.053,22.735-99.748,32.74-91.316,42.406z"/>
	<path fill="#009490" d="M55.598,167.289l1.235-0.675l-0.112-1.349c-0.225-2.698-0.225-5.171-0.112-7.53
		c0.112-2.812,0.449-5.734,0.899-8.431l0.224-1.35l-1.123-0.787c-37.431-28.438-110.945-35.97-174.679-18.097
		c-12.251,3.484-23.718,7.756-33.946,12.814l-3.484,1.685l3.259,2.137c9.779,6.293,20.684,12.027,32.485,16.973
		C-58.045,188.759,15.694,190.67,55.598,167.289z"/>
	<path fill="#009490" d="M66.388,210.68l0.787-1.125l-0.674-1.237c-1.349-2.36-2.473-4.498-3.485-6.744
		c-1.125-2.587-2.023-5.284-2.922-7.982l-0.337-1.236l-1.348-0.336c-46.199-8.768-115.441,16.859-164.674,61.147
		c-9.442,8.543-17.76,17.425-24.729,26.415l-2.361,3.035l3.821,0.451c11.465,1.46,23.83,1.685,36.645,1.011
		C-26.009,280.145,40.984,249.232,66.388,210.68z"/>
	<path fill="#009490" d="M88.645,237.319l-0.788-0.678l-0.786-0.673l-0.788-0.675l-0.786-0.786l-0.788-0.787l-0.786-0.674
		l-0.674-0.788l-0.787-0.786l-0.899-1.011l-1.236,0.336c-45.413,12.477-96.107,66.207-120.723,127.693
		c-4.721,11.801-8.319,23.492-10.566,34.619l-0.674,3.822l3.596-1.349c10.904-3.822,22.144-8.992,33.272-15.399
		c58.227-33.046,104.65-90.374,110.383-136.234l0.225-1.349l-1.125-0.789C92.466,240.353,90.555,238.892,88.645,237.319z"/>
	<path fill="#005E9C" d="M415.183,204.047l3.933-1.014l3.935-1.122l3.822-1.124l1.913-0.562l1.908-0.675l1.911-0.563l1.91-0.673
		l1.799-0.677l1.8-0.56l1.799-0.675l1.687-0.674l1.685-0.675l1.687-0.675c1.124-10.566,1.011-37.544,0.898-40.578
		c-8.317-4.048-17.984-8.319-28.101-11.58c-18.548-5.844-45.188-8.429-63.621-9.891c-2.248-14.5-0.676-6.744-4.722-21.469
		c16.299-8.992,39.678-22.482,54.181-35.745c7.979-7.306,14.948-14.726,20.905-22.032c-5.171-12.814-11.127-25.178-17.984-37.094
		c-9.328,0.337-19.221,1.462-29.673,3.372c-19.111,3.485-43.841,13.714-60.699,21.134c-8.881-11.691-3.935-5.734-14.389-16.75
		c10.229-15.625,24.505-38.555,31.136-56.99c3.598-10.229,5.732-19.109,7.531-28.326c-8.544-7.195-17.647-13.938-26.979-20.121
		L249.946,28.243c6.745,4.946,13.376,10.455,19.446,16.637c31.36,31.36,48.67,73.063,48.67,117.463
		c0,44.288-17.31,85.991-48.67,117.463c-31.361,31.362-73.064,48.56-117.464,48.56c-23.493,0-46.312-4.832-67.219-14.05
		l-63.845,110.72c9.779,4.832,19.783,9.216,30.125,13.038c6.407-5.846,12.702-12.589,18.996-20.121
		c12.365-15.062,24.729-38.779,33.047-55.303c14.275,3.259,6.52,1.911,21.694,3.598c2.136,18.547,5.958,45.298,12.702,63.62
		c3.596,9.555,7.532,19.56,11.802,27.314c0.9,0,29.449-0.898,42.489-2.697c3.035-8.317,5.509-18.66,7.532-28.438
		c3.821-18.996,3.709-45.861,3.146-64.295c14.162-3.822,6.743-1.461,20.908-6.97c10.678,15.288,26.527,37.093,41.14,50.133
		c7.756,6.97,16.411,13.264,24.056,18.21c12.477-6.521,24.391-13.825,35.744-22.031c-1.237-8.88-4.159-18.772-7.082-28.552
		c-5.509-18.66-18.21-42.152-27.313-58.226c10.678-10.005,5.17-4.497,15.062-16.073c16.635,8.541,40.914,20.457,59.911,25.065
		c10.34,2.474,21.021,4.495,30.237,5.284c7.867-11.467,14.95-23.383,21.133-35.858c-5.511-7.42-12.701-15.287-20.008-22.818
		c-13.603-13.826-35.858-28.662-51.483-38.555c4.722-13.938,2.472-6.406,5.847-21.245
		C369.209,209.891,396.187,208.878,415.183,204.047z"/>
</g>
</svg>
